<svg width="17" height="20" viewBox="0 0 17 20" fill="none" xmlns="http://www.w3.org/2000/svg">
<path d="M3.1875 0C4.03288 0 4.84363 0.335825 5.4414 0.933597C6.03918 1.53137 6.375 2.34212 6.375 3.1875V15.9375C6.375 16.7829 6.03918 17.5936 5.4414 18.1914C4.84363 18.7892 4.03288 19.125 3.1875 19.125C2.34212 19.125 1.53137 18.7892 0.933597 18.1914C0.335825 17.5936 1.7815e-08 16.7829 0 15.9375V3.1875C0 2.34212 0.335825 1.53137 0.933597 0.933597C1.53137 0.335825 2.34212 0 3.1875 0V0ZM13.8125 0C14.6579 0 15.4686 0.335825 16.0664 0.933597C16.6642 1.53137 17 2.34212 17 3.1875V15.9375C17 16.7829 16.6642 17.5936 16.0664 18.1914C15.4686 18.7892 14.6579 19.125 13.8125 19.125C12.9671 19.125 12.1564 18.7892 11.5586 18.1914C10.9608 17.5936 10.625 16.7829 10.625 15.9375V3.1875C10.625 2.34212 10.9608 1.53137 11.5586 0.933597C12.1564 0.335825 12.9671 0 13.8125 0Z" fill="white"/>
</svg>
